<?xml version="1.0" encoding="UTF-8" standalone="no"?>
<!DOCTYPE svg PUBLIC "-//W3C//DTD SVG 1.1//EN" "http://www.w3.org/Graphics/SVG/1.1/DTD/svg11.dtd">
<svg width="100%" height="100%" viewBox="0 0 822 105" version="1.1" xmlns="http://www.w3.org/2000/svg" xmlns:xlink="http://www.w3.org/1999/xlink" xml:space="preserve" xmlns:serif="http://www.serif.com/" style="fill-rule:evenodd;clip-rule:evenodd;stroke-linejoin:round;stroke-miterlimit:2;">
    <g transform="matrix(1,0,0,1,-1175.39,-1346)">
        <g id="Artboard2" transform="matrix(0.729024,0,0,1,1175.39,1346)">
            <rect x="0" y="0" width="1127" height="104.63" style="fill:none;"/>
            <g transform="matrix(1.3717,0,0,1,2.07881e-13,-370)">
                <g id="Layer_1" transform="matrix(1,0,0,1,1.42109e-14,370)">
                    <path d="M140.76,52.2L134.32,52.2L134.32,76.2L125.32,76.2L125.32,52.2L120.67,52.2L120.67,44.49L125.32,44.49L125.32,41.49C125.32,33.72 130.17,29.73 137.55,29.73C138.691,29.741 139.828,29.875 140.94,30.13L140.94,39.13C139.966,38.745 138.928,38.545 137.88,38.54C137.797,38.534 137.714,38.53 137.63,38.53C135.831,38.53 134.35,40.011 134.35,41.81C134.35,41.894 134.354,41.977 134.36,42.06L134.36,44.45L140.8,44.45L140.76,52.2ZM154.32,76.2L145.22,76.2L145.22,30.4L154.32,30.4L154.32,76.2Z" style="fill-rule:nonzero;"/>
                    <path d="M174.52,42.5L174.55,42.5C184.008,42.5 191.79,50.282 191.79,59.74C191.79,69.198 184.008,76.98 174.55,76.98C165.092,76.98 157.31,69.198 157.31,59.74L157.31,59.71C157.309,59.64 157.309,59.569 157.309,59.499C157.309,50.173 164.983,42.499 174.309,42.499C174.379,42.499 174.45,42.499 174.52,42.5ZM174.52,68.14C179.17,68.14 182.52,64.29 182.52,59.71C182.52,55.13 179.2,51.33 174.52,51.33C170.018,51.485 166.4,55.231 166.4,59.735C166.4,64.239 170.018,67.985 174.52,68.14Z" style="fill-rule:nonzero;"/>
                    <path d="M201.23,43.16L207.07,65.16L212.92,47.69L211.33,43.17L220.33,43.17L228.04,65.17L233.76,43.17L243.12,43.17L233.29,76.26L223.86,76.26L217.28,58.12L211.17,76.26L201.67,76.26L191.9,43.17L201.23,43.16Z" style="fill-rule:nonzero;"/>
                    <circle cx="53.08" cy="52.32" r="50" style="fill:rgb(0,239,139);"/>
                    <rect x="60.91" y="44.49" width="14.12" height="14.12" style="fill:white;"/>
                    <path d="M46.79,58.61L46.79,63.91C46.79,66.817 44.398,69.21 41.49,69.21C38.583,69.21 36.19,66.817 36.19,63.91C36.19,61.002 38.583,58.61 41.49,58.61L46.79,58.61L46.79,44.49L41.49,44.49C30.837,44.49 22.07,53.257 22.07,63.91C22.07,74.563 30.837,83.33 41.49,83.33C52.143,83.33 60.91,74.563 60.91,63.91L60.91,58.61L46.79,58.61Z" style="fill:white;fill-rule:nonzero;"/>
                    <path d="M66.2,37.43L82.08,37.43L82.08,23.32L66.2,23.32C55.556,23.331 46.801,32.086 46.79,42.73L46.79,44.49L60.91,44.49L60.91,42.73C60.915,39.828 63.298,37.441 66.2,37.43Z" style="fill:white;fill-rule:nonzero;"/>
                    <rect x="46.79" y="44.49" width="14.12" height="14.12" style="fill:rgb(22,255,153);"/>
                </g>
                <g transform="matrix(0.994097,0,0,0.994097,-95.8729,-689.181)">
                    <path d="M354.7,1141.26L354.7,1096.9L369.899,1096.9C376.379,1096.9 381.597,1098.96 385.555,1103.07C389.512,1107.18 391.491,1112.52 391.491,1119.08C391.491,1125.65 389.512,1130.99 385.555,1135.1C381.597,1139.21 376.379,1141.26 369.899,1141.26L354.7,1141.26ZM369.834,1100.43L358.484,1100.43L358.484,1137.74L369.834,1137.74C375.183,1137.74 379.477,1136 382.717,1132.52C385.957,1129.04 387.577,1124.56 387.577,1119.08C387.577,1113.6 385.957,1109.12 382.717,1105.65C379.477,1102.17 375.183,1100.43 369.834,1100.43Z" style="fill-rule:nonzero;"/>
                    <path d="M428.346,1127.17L401.276,1127.17C401.58,1130.43 402.874,1133.13 405.157,1135.26C407.44,1137.39 410.234,1138.46 413.539,1138.46C415.67,1138.46 417.779,1138.02 419.866,1137.15C421.954,1136.28 423.715,1135.24 425.15,1134.02L425.15,1138.2C421.628,1140.67 417.692,1141.91 413.343,1141.91C408.821,1141.91 405.037,1140.36 401.993,1137.25C398.949,1134.14 397.427,1130.24 397.427,1125.54C397.427,1120.93 398.927,1117.06 401.928,1113.93C404.928,1110.8 408.668,1109.23 413.148,1109.23C417.583,1109.23 421.258,1110.73 424.172,1113.73C427.085,1116.74 428.542,1120.43 428.542,1124.82C428.542,1125.87 428.477,1126.65 428.346,1127.17ZM413.148,1112.56C409.886,1112.56 407.135,1113.66 404.896,1115.85C402.656,1118.05 401.428,1120.78 401.21,1124.04L424.889,1124.04C424.846,1120.65 423.704,1117.89 421.465,1115.76C419.225,1113.63 416.453,1112.56 413.148,1112.56Z" style="fill-rule:nonzero;"/>
                    <path d="M431.217,1109.89L435.196,1109.89L446.024,1136.76L456.983,1109.89L460.897,1109.89L448.046,1141.26L444.067,1141.26L431.217,1109.89Z" style="fill-rule:nonzero;"/>
                    <path d="M494.817,1127.17L467.746,1127.17C468.051,1130.43 469.344,1133.13 471.627,1135.26C473.91,1137.39 476.705,1138.46 480.01,1138.46C482.14,1138.46 484.25,1138.02 486.337,1137.15C488.424,1136.28 490.186,1135.24 491.621,1134.02L491.621,1138.2C488.098,1140.67 484.163,1141.91 479.814,1141.91C475.291,1141.91 471.508,1140.36 468.464,1137.25C465.42,1134.14 463.897,1130.24 463.897,1125.54C463.897,1120.93 465.398,1117.06 468.398,1113.93C471.399,1110.8 475.139,1109.23 479.618,1109.23C484.054,1109.23 487.729,1110.73 490.642,1113.73C493.556,1116.74 495.013,1120.43 495.013,1124.82C495.013,1125.87 494.948,1126.65 494.817,1127.17ZM479.618,1112.56C476.357,1112.56 473.606,1113.66 471.366,1115.85C469.127,1118.05 467.898,1120.78 467.681,1124.04L491.36,1124.04C491.316,1120.65 490.175,1117.89 487.935,1115.76C485.696,1113.63 482.923,1112.56 479.618,1112.56Z" style="fill-rule:nonzero;"/>
                    <rect x="502.188" y="1096.25" width="3.653" height="45.01" style="fill-rule:nonzero;"/>
                    <path d="M518.3,1137.22C515.169,1134.04 513.604,1130.15 513.604,1125.54C513.604,1120.93 515.169,1117.06 518.3,1113.93C521.431,1110.8 525.302,1109.23 529.911,1109.23C534.521,1109.23 538.392,1110.8 541.523,1113.93C544.654,1117.06 546.219,1120.93 546.219,1125.54C546.219,1130.19 544.654,1134.09 541.523,1137.22C538.392,1140.35 534.521,1141.91 529.911,1141.91C525.302,1141.91 521.431,1140.35 518.3,1137.22ZM517.452,1125.54C517.452,1129.11 518.648,1132.12 521.04,1134.58C523.432,1137.03 526.389,1138.26 529.911,1138.26C533.434,1138.26 536.402,1137.03 538.816,1134.58C541.229,1132.12 542.436,1129.11 542.436,1125.54C542.436,1122.02 541.229,1119.03 538.816,1116.57C536.402,1114.12 533.434,1112.89 529.911,1112.89C526.389,1112.89 523.432,1114.12 521.04,1116.57C518.648,1119.03 517.452,1122.02 517.452,1125.54Z" style="fill-rule:nonzero;"/>
                    <path d="M557.57,1109.89L557.57,1117.45C558.744,1114.93 560.472,1112.93 562.755,1111.45C565.038,1109.97 567.659,1109.23 570.616,1109.23C575.138,1109.23 578.911,1110.8 581.933,1113.93C584.956,1117.06 586.467,1120.93 586.467,1125.54C586.467,1130.19 584.956,1134.09 581.933,1137.22C578.911,1140.35 575.138,1141.91 570.616,1141.91C567.659,1141.91 565.038,1141.2 562.755,1139.76C560.472,1138.33 558.744,1136.37 557.57,1133.89L557.57,1154.63L553.851,1154.63L553.851,1109.89L557.57,1109.89ZM561.157,1116.54C558.765,1118.98 557.57,1121.98 557.57,1125.54C557.57,1129.11 558.765,1132.12 561.157,1134.58C563.549,1137.03 566.528,1138.26 570.094,1138.26C573.616,1138.26 576.584,1137.03 578.998,1134.58C581.412,1132.12 582.618,1129.11 582.618,1125.54C582.618,1122.02 581.412,1119.03 578.998,1116.57C576.584,1114.12 573.616,1112.89 570.094,1112.89C566.528,1112.89 563.549,1114.1 561.157,1116.54Z" style="fill-rule:nonzero;"/>
                    <path d="M597.882,1109.89L597.882,1114.52C599.665,1111 602.666,1109.23 606.884,1109.23C609.32,1109.23 611.461,1109.84 613.31,1111.06C615.158,1112.28 616.473,1113.97 617.256,1116.15C617.995,1113.93 619.202,1112.22 620.876,1111.03C622.551,1109.83 624.605,1109.23 627.041,1109.23C630.302,1109.23 632.988,1110.29 635.097,1112.4C637.206,1114.51 638.261,1117.39 638.261,1121.04L638.261,1141.26L634.542,1141.26L634.542,1121.76C634.542,1118.93 633.792,1116.75 632.292,1115.2C630.792,1113.66 628.802,1112.89 626.323,1112.89C623.888,1112.89 621.898,1113.67 620.355,1115.24C618.811,1116.8 618.039,1118.98 618.039,1121.76L618.039,1141.26L614.321,1141.26L614.321,1121.76C614.321,1118.93 613.571,1116.75 612.07,1115.2C610.57,1113.66 608.602,1112.89 606.167,1112.89C603.731,1112.89 601.753,1113.62 600.231,1115.07C598.709,1116.53 597.926,1118.61 597.882,1121.3L597.882,1141.26L594.164,1141.26L594.164,1109.89L597.882,1109.89Z" style="fill-rule:nonzero;"/>
                    <path d="M676.421,1127.17L649.35,1127.17C649.654,1130.43 650.948,1133.13 653.231,1135.26C655.514,1137.39 658.308,1138.46 661.613,1138.46C663.744,1138.46 665.853,1138.02 667.941,1137.15C670.028,1136.28 671.789,1135.24 673.224,1134.02L673.224,1138.2C669.702,1140.67 665.766,1141.91 661.418,1141.91C656.895,1141.91 653.112,1140.36 650.067,1137.25C647.023,1134.14 645.501,1130.24 645.501,1125.54C645.501,1120.93 647.002,1117.06 650.002,1113.93C653.003,1110.8 656.743,1109.23 661.222,1109.23C665.658,1109.23 669.332,1110.73 672.246,1113.73C675.16,1116.74 676.617,1120.43 676.617,1124.82C676.617,1125.87 676.551,1126.65 676.421,1127.17ZM661.222,1112.56C657.96,1112.56 655.21,1113.66 652.97,1115.85C650.731,1118.05 649.502,1120.78 649.285,1124.04L672.964,1124.04C672.92,1120.65 671.779,1117.89 669.539,1115.76C667.299,1113.63 664.527,1112.56 661.222,1112.56Z" style="fill-rule:nonzero;"/>
                    <path d="M687.38,1109.89L687.38,1115.37C689.25,1111.28 692.576,1109.23 697.36,1109.23C701.013,1109.23 703.948,1110.42 706.166,1112.79C708.384,1115.16 709.493,1118.24 709.493,1122.02L709.493,1141.26L705.84,1141.26L705.84,1122.67C705.84,1119.76 705.014,1117.4 703.361,1115.59C701.709,1113.79 699.447,1112.89 696.577,1112.89C693.794,1112.89 691.587,1113.75 689.956,1115.46C688.326,1117.18 687.467,1119.45 687.38,1122.28L687.38,1141.26L683.661,1141.26L683.661,1109.89L687.38,1109.89Z" style="fill-rule:nonzero;"/>
                    <path d="M724.692,1141.26L720.974,1141.26L720.974,1113.15L714.581,1113.15L714.581,1109.89L721.104,1109.89L721.104,1101.73L724.692,1100.69L724.692,1109.89L731.28,1109.89L731.28,1113.15L724.692,1113.15L724.692,1141.26Z" style="fill-rule:nonzero;"/>
                    <path d="M760.569,1141.26L747.197,1096.9L751.502,1096.9L762.852,1136.17L776.29,1101.28L774.79,1096.9L778.769,1096.9L791.945,1136.17L803.296,1096.9L807.601,1096.9L794.294,1141.26L790.054,1141.26L778.116,1106.36L764.809,1141.26L760.569,1141.26Z" style="fill-rule:nonzero;"/>
                    <path d="M812.689,1115.43L812.689,1111.58C815.516,1110.02 818.494,1109.23 821.626,1109.23C825.061,1109.23 827.844,1110.18 829.975,1112.07C832.106,1113.96 833.171,1116.84 833.171,1120.71L833.171,1141.26L829.453,1141.26L829.453,1137.28C828.584,1138.67 827.355,1139.79 825.768,1140.64C824.18,1141.49 822.43,1141.91 820.517,1141.91C817.168,1141.91 814.45,1140.9 812.363,1138.88C810.275,1136.86 809.232,1134.35 809.232,1131.35C809.232,1128.39 810.319,1125.9 812.493,1123.88C814.668,1121.86 817.364,1120.84 820.582,1120.84C822.408,1120.84 824.137,1121.28 825.768,1122.15C827.398,1123.02 828.627,1124.06 829.453,1125.28L829.453,1120.71C829.453,1118.06 828.66,1116.06 827.072,1114.71C825.485,1113.37 823.582,1112.69 821.365,1112.69C818.407,1112.69 815.516,1113.6 812.689,1115.43ZM813.015,1131.35C813.015,1133.43 813.82,1135.21 815.429,1136.66C817.038,1138.12 818.951,1138.85 821.169,1138.85C823.43,1138.85 825.376,1138.12 827.007,1136.66C828.638,1135.21 829.453,1133.43 829.453,1131.35C829.453,1129.35 828.627,1127.61 826.974,1126.13C825.322,1124.65 823.387,1123.91 821.169,1123.91C818.908,1123.91 816.983,1124.64 815.396,1126.1C813.809,1127.55 813.015,1129.3 813.015,1131.35Z" style="fill-rule:nonzero;"/>
                    <rect x="842.76" y="1096.25" width="3.653" height="45.01" style="fill-rule:nonzero;"/>
                    <rect x="856.459" y="1096.25" width="3.653" height="45.01" style="fill-rule:nonzero;"/>
                    <path d="M898.794,1127.17L871.723,1127.17C872.028,1130.43 873.321,1133.13 875.604,1135.26C877.887,1137.39 880.682,1138.46 883.987,1138.46C886.117,1138.46 888.227,1138.02 890.314,1137.15C892.401,1136.28 894.163,1135.24 895.598,1134.02L895.598,1138.2C892.075,1140.67 888.14,1141.91 883.791,1141.91C879.268,1141.91 875.485,1140.36 872.441,1137.25C869.397,1134.14 867.874,1130.24 867.874,1125.54C867.874,1120.93 869.375,1117.06 872.375,1113.93C875.376,1110.8 879.116,1109.23 883.595,1109.23C888.031,1109.23 891.706,1110.73 894.619,1113.73C897.533,1116.74 898.99,1120.43 898.99,1124.82C898.99,1125.87 898.925,1126.65 898.794,1127.17ZM883.595,1112.56C880.334,1112.56 877.583,1113.66 875.343,1115.85C873.104,1118.05 871.875,1120.78 871.658,1124.04L895.337,1124.04C895.293,1120.65 894.152,1117.89 891.912,1115.76C889.673,1113.63 886.9,1112.56 883.595,1112.56Z" style="fill-rule:nonzero;"/>
                    <path d="M911.906,1141.26L908.187,1141.26L908.187,1113.15L901.795,1113.15L901.795,1109.89L908.318,1109.89L908.318,1101.73L911.906,1100.69L911.906,1109.89L918.494,1109.89L918.494,1113.15L911.906,1113.15L911.906,1141.26Z" style="fill-rule:nonzero;"/>
                </g>
            </g>
        </g>
    </g>
</svg>
